<svg width="32" height="32" viewBox="0 0 32 32" fill="none" xmlns="http://www.w3.org/2000/svg">
<ellipse rx="3.13287" ry="4.30636" transform="matrix(0.934716 -0.355396 0.346448 0.938069 6.26671 8.89207)" fill="black"/>
<path d="M6.49921 12.3293L8.10094 12.3293L14.4771 27.315L11.1124 28.7092L6.49921 12.3293Z" fill="black"/>
<ellipse cx="12.6772" cy="27.73" rx="1.83056" ry="1.85737" fill="black"/>
<path fill-rule="evenodd" clip-rule="evenodd" d="M21.6776 10.0851L25.257 5.30987C25.0766 5.01052 24.8337 4.76108 24.5283 4.57746L20.686 10.0077L20.2283 9.69816L24.109 4.38248C23.7848 4.27097 23.4306 4.23069 23.0603 4.25565L19.847 8.84688L19.3893 8.45993L22.4204 4.35921C21.206 4.66508 19.9095 5.58978 18.9705 6.94411C17.4412 9.14964 17.4391 11.6594 18.9657 12.5497C20.4924 13.4401 22.9696 12.374 24.4989 10.1684C25.5375 8.67047 25.8717 7.03219 25.5009 5.85624L24.9573 6.60253L22.1352 10.3947L21.6776 10.0851Z" fill="black"/>
<path d="M18.7573 11.1118L19.717 12.4129L9.94967 27.9109L6.66943 26.1376L18.7573 11.1118Z" fill="black"/>
<ellipse rx="1.84779" ry="2.11468" transform="matrix(0.593602 0.804759 -0.796399 0.604771 8.49488 26.7347)" fill="black"/>
<path d="M23.2199 20.0535L23.0006 21.6633L5.31521 25.7134L4.21195 22.1122L23.2199 20.0535Z" fill="black"/>
<ellipse rx="1.85687" ry="2.10414" transform="matrix(-0.135018 0.990843 -0.990303 -0.138927 5.09609 23.8392)" fill="black"/>
<path fill-rule="evenodd" clip-rule="evenodd" d="M24.4343 17.4635C22.8103 17.7512 21.7047 19.2718 21.9318 20.9054C22.1688 22.611 23.7634 23.7872 25.4629 23.51L28.4094 23.0295C29.8615 22.7927 30.9448 21.5641 30.9978 20.0938C31.0686 18.1293 29.3097 16.5998 27.374 16.9427L24.4343 17.4635ZM24.0468 19.731C23.665 19.7773 23.3919 20.1244 23.4369 20.5064C23.4818 20.8883 23.8278 21.1605 24.2096 21.1142L29.0372 20.5293C29.419 20.4831 29.6921 20.1359 29.6472 19.754C29.6022 19.372 29.2563 19.0999 28.8745 19.1461L24.0468 19.731Z" fill="black"/>
</svg>
