<svg width="32" height="32" viewBox="0 0 32 32" fill="none" xmlns="http://www.w3.org/2000/svg">
<path d="M23.6183 17.9033H27.1684C28 17.8451 29.6631 17.3101 29.6631 15.6354C29.6631 13.9607 29.6631 9.93662 29.6631 8.13394" stroke="black" stroke-width="1.5" stroke-linecap="round"/>
<path d="M24.098 17.9033H20.5479C19.7164 17.8451 18.0532 17.3101 18.0532 15.6354C18.0532 13.9607 18.0532 9.93662 18.0532 8.13394" stroke="black" stroke-width="1.5" stroke-linecap="round"/>
<rect x="16.4286" y="7" width="14.5714" height="1.71429" rx="0.857143" fill="black"/>
<path d="M15.5455 25.6662H23.9546C25.9243 25.6387 29.8637 25.8407 29.8637 24.593C29.8637 23.8005 29.8637 21.8963 29.8637 21.0432" stroke="black" stroke-width="1.5" stroke-linecap="round"/>
<path d="M16.6818 25.6662H8.27267C6.30298 25.6387 2.36358 25.8407 2.36358 24.593C2.36358 23.8005 2.36358 21.8963 2.36358 21.0432" stroke="black" stroke-width="1.5" stroke-linecap="round"/>
<rect x="1" y="20" width="30" height="2" rx="1" fill="black"/>
<path d="M7.99792 17.9033H11.548C12.3796 17.8451 14.0427 17.3101 14.0427 15.6354C14.0427 13.9607 14.0427 9.93662 14.0427 8.13394" stroke="black" stroke-width="1.5" stroke-linecap="round"/>
<path d="M8.47766 17.9033H4.92755C4.096 17.8451 2.43288 17.3101 2.43288 15.6354C2.43288 13.9607 2.43288 9.93662 2.43288 8.13394" stroke="black" stroke-width="1.5" stroke-linecap="round"/>
<rect x="1" y="7" width="14.5714" height="1.71429" rx="0.857143" fill="black"/>
</svg>
