<svg width="33" height="32" viewBox="0 0 33 32" fill="none" xmlns="http://www.w3.org/2000/svg">
<rect x="5.0061" y="8.75" width="21.1807" height="15.3421" rx="1.25" stroke="black" stroke-width="1.5"/>
<path fill-rule="evenodd" clip-rule="evenodd" d="M29.8352 8C28.7306 8 27.8352 8.89543 27.8352 10V22.8421C27.8352 23.9467 28.7306 24.8421 29.8352 24.8421H31.0001C32.1047 24.8421 33.0001 23.9467 33.0001 22.8421V10C33.0001 8.89543 32.1047 8 31.0001 8H29.8352ZM29.5087 8.67368C28.9564 8.67368 28.5087 9.12139 28.5087 9.67368V10.3684C28.5087 10.9207 28.9564 11.3684 29.5087 11.3684H31.3262C31.8785 11.3684 32.3262 10.9207 32.3262 10.3684V9.67368C32.3262 9.12139 31.8785 8.67368 31.3262 8.67368H29.5087ZM28.5087 15.7474C28.5087 15.4373 28.76 15.186 29.0701 15.186H29.2947C29.6047 15.186 29.8561 15.4373 29.8561 15.7474C29.8561 16.0574 29.6047 16.3088 29.2947 16.3088H29.0701C28.76 16.3088 28.5087 16.0574 28.5087 15.7474ZM29.0701 19.6772C28.76 19.6772 28.5087 19.9285 28.5087 20.2386C28.5087 20.5486 28.76 20.8 29.0701 20.8H29.2947C29.6047 20.8 29.8561 20.5486 29.8561 20.2386C29.8561 19.9285 29.6047 19.6772 29.2947 19.6772H29.0701ZM28.5087 17.993C28.5087 17.6829 28.76 17.4316 29.0701 17.4316H29.2947C29.6047 17.4316 29.8561 17.6829 29.8561 17.993C29.8561 18.303 29.6047 18.5544 29.2947 18.5544H29.0701C28.76 18.5544 28.5087 18.303 28.5087 17.993ZM29.0701 21.9228C28.76 21.9228 28.5087 22.1742 28.5087 22.4842C28.5087 22.7943 28.76 23.0456 29.0701 23.0456H29.2947C29.6047 23.0456 29.8561 22.7943 29.8561 22.4842C29.8561 22.1742 29.6047 21.9228 29.2947 21.9228H29.0701ZM30.9789 15.7474C30.9789 15.4373 31.2303 15.186 31.5403 15.186H31.7649C32.075 15.186 32.3263 15.4373 32.3263 15.7474C32.3263 16.0574 32.075 16.3088 31.7649 16.3088H31.5403C31.2303 16.3088 30.9789 16.0574 30.9789 15.7474ZM31.5403 19.6772C31.2303 19.6772 30.9789 19.9285 30.9789 20.2386C30.9789 20.5486 31.2303 20.8 31.5403 20.8H31.7649C32.075 20.8 32.3263 20.5486 32.3263 20.2386C32.3263 19.9285 32.075 19.6772 31.7649 19.6772H31.5403ZM30.9789 17.993C30.9789 17.6829 31.2303 17.4316 31.5403 17.4316H31.7649C32.075 17.4316 32.3263 17.6829 32.3263 17.993C32.3263 18.303 32.075 18.5544 31.7649 18.5544H31.5403C31.2303 18.5544 30.9789 18.303 30.9789 17.993ZM31.5403 21.9228C31.2303 21.9228 30.9789 22.1742 30.9789 22.4842C30.9789 22.7943 31.2303 23.0456 31.5403 23.0456H31.7649C32.075 23.0456 32.3263 22.7943 32.3263 22.4842C32.3263 22.1742 32.075 21.9228 31.7649 21.9228H31.5403Z" fill="black"/>
<path d="M1 12.683C1.90872 12.034 4.2974 10.7502 7.2566 11.7166C10.2158 12.683 12.245 15.0984 15.0351 12.3205" stroke="black" stroke-width="1.5" stroke-linecap="round"/>
<path d="M1 16.0514C1.90872 15.4024 4.2974 14.1186 7.2566 15.085C10.2158 16.0514 12.245 18.4668 15.0351 15.6889" stroke="black" stroke-width="1.5" stroke-linecap="round"/>
<path d="M1 19.0912C1.90872 18.6044 4.2974 17.6416 7.2566 18.3664C10.2158 19.0912 12.245 20.9027 15.0351 18.8193" stroke="black" stroke-width="1.5" stroke-linecap="round"/>
</svg>
