<svg width="36" height="32" viewBox="0 0 36 32" fill="none" xmlns="http://www.w3.org/2000/svg">
<path d="M24.6183 22.9033H28.1684C29 22.8184 30.6631 22.0381 30.6631 19.5954C30.6631 17.1526 30.6631 11.2833 30.6631 8.65393" stroke="black" stroke-width="1.5" stroke-linecap="round"/>
<path d="M25.098 22.9033H21.5479C20.7164 22.8184 19.0532 22.0381 19.0532 19.5954C19.0532 17.1526 19.0532 11.2833 19.0532 8.65393" stroke="black" stroke-width="1.5" stroke-linecap="round"/>
<rect x="18" y="7" width="14" height="2" rx="1" fill="black"/>
<path d="M34.5 22.5L30 26H4.5L1 22.5" stroke="black" stroke-width="1.5" stroke-linecap="round"/>
<path d="M9.99792 22.9033H13.548C14.3796 22.8451 16.0427 22.3101 16.0427 20.6354C16.0427 18.9607 16.0427 14.9366 16.0427 13.1339" stroke="black" stroke-width="1.5" stroke-linecap="round"/>
<path d="M10.4777 22.9033H6.92755C6.096 22.8451 4.43288 22.3101 4.43288 20.6354C4.43288 18.9607 4.43288 14.9366 4.43288 13.1339" stroke="black" stroke-width="1.5" stroke-linecap="round"/>
<rect x="3" y="12" width="14.5714" height="1.71429" rx="0.857143" fill="black"/>
</svg>
